# File created by Blade
# Date/Time:  Fri Jan 16 17:25:32 2015
#---------------------------------------------------------
:version 1.10
:name HOM
:units
  mass 1.0
  length 1.000000
  angle deg
:documentation
     Acclaim Skeleton File
:root
   axis xyz
   order TX TY TZ RX RY RZ
   position 0.000000 0.000000 0.000000
   orientation 0 0 0
:bonedata
   begin
      id 1
      name Spine_dum
      direction 0.000000 1.000000 0.000000
      length 7.170412
      axis 0.0 0.0 0.0 xyz
   end
   begin
      id 2
      name LeftUpLeg_dum
      direction 1.000000 0.000000 0.000000
      length 4.318350
      axis 0.0 0.0 0.0 xyz
   end
   begin
      id 3
      name RightUpLeg_dum
      direction -1.000000 0.000000 0.000000
      length 4.318350
      axis 0.0 0.0 0.0 xyz
   end
   begin
      id 4
      name Spine
      direction 0.000000 1.000000 0.000000
      length 0.000000
      axis 0.0 0.0 0.0 xyz
      dof rx ry rz
   end
   begin
      id 5
      name Spine_dum1
      direction 0.000000 1.000000 0.000000
      length 14.276153
      axis 0.0 0.0 0.0 xyz
   end
   begin
      id 6
      name Spine_dum2
      direction 0.000000 1.000000 0.000000
      length 10.718243
      axis 0.0 0.0 0.0 xyz
   end
   begin
      id 7
      name Spine_dum3
      direction 0.000000 1.000000 0.000000
      length 10.718243
      axis 0.0 0.0 0.0 xyz
   end
   begin
      id 8
      name Head
      direction 0.000000 1.000000 0.000000
      length 4.527550
      axis 0.0 0.0 0.0 xyz
      dof rx ry rz
   end
   begin
      id 9
      name LeftShoulder
      direction 1.000000 0.000000 0.000000
      length 7.058872
      axis 0.0 0.0 -90.0 xyz
      dof rx ry rz
   end
   begin
      id 10
      name LeftArm
      direction 1.000000 0.000000 0.000000
      length 10.955525
      axis 0.0 0.0 -90.0 xyz
      dof rx ry rz
   end
   begin
      id 11
      name LeftForeArm
      direction 1.000000 0.000000 0.000000
      length 8.193716
      axis 0.0 0.0 -90.0 xyz
      dof ry rz rx
   end
   begin
      id 12
      name LeftHand
      direction 0.000000 0.000000 0.000000
      length 0.000000
      axis 0.0 0.0 -90.0 xyz
      dof rx ry rz
   end
   begin
      id 13
      name LeftHand_dum1
      direction 0.000000 0.000000 0.000000
      length 0.000000
      axis 0.0 0.0 -90.0 xyz
   end
   begin
      id 14
      name LeftHand_dum2
      direction 1.000000 0.000000 0.000000
      length 3.937000
      axis 0.0 0.0 -90.0 xyz
   end
   begin
      id 15
      name LeftHandThumb1
      direction 0.000000 0.000000 1.000000
      length 3.937000
      axis 0.0 0.0 -90.0 xyz
      dof rx rz ry
   end
   begin
      id 16
      name RightShoulder
      direction -1.000000 0.000000 0.000000
      length 7.058872
      axis 0.0 0.0 90.0 xyz
      dof rx ry rz
   end
   begin
      id 17
      name RightArm
      direction -1.000000 0.000000 0.000000
      length 10.955525
      axis 0.0 0.0 90.0 xyz
      dof rx ry rz
   end
   begin
      id 18
      name RightForeArm
      direction -1.000000 0.000000 0.000000
      length 8.193716
      axis 0.0 0.0 90.0 xyz
      dof ry rz rx
   end
   begin
      id 19
      name RightHand
      direction 0.000000 0.000000 0.000000
      length 0.000000
      axis 0.0 0.0 90.0 xyz
      dof rx ry rz
   end
   begin
      id 20
      name RightHand_dum1
      direction 0.000000 0.000000 0.000000
      length 0.000000
      axis 0.0 0.0 90.0 xyz
   end
   begin
      id 21
      name RightHand_dum2
      direction -1.000000 0.000000 0.000000
      length 3.937000
      axis 0.0 0.0 90.0 xyz
   end
   begin
      id 22
      name RightHandThumb1
      direction 0.000000 0.000000 1.000000
      length 3.937000
      axis 0.0 0.0 90.0 xyz
      dof rx rz ry
   end
   begin
      id 23
      name LeftUpLeg
      direction 0.000000 -1.000000 0.000000
      length 17.323638
      axis 0.0 0.0 0.0 xyz
      dof rx ry rz
   end
   begin
      id 24
      name LeftLeg
      direction 0.000000 -1.000000 0.000000
      length 16.270368
      axis 0.0 0.0 0.0 xyz
      dof rx ry rz
   end
   begin
      id 25
      name LeftFoot
      direction 0.000000 -0.258819 0.965926
      length 4.922846
      axis 15.0 0.0 0.0 xyz
      dof rx ry rz
   end
   begin
      id 26
      name LeftToeBase
      direction 0.000000 0.000000 1.000000
      length 2.952750
      axis 0.0 0.0 0.0 xyz
      dof rx ry rz
   end
   begin
      id 27
      name RightUpLeg
      direction 0.000000 -1.000000 0.000000
      length 17.323638
      axis 0.0 0.0 0.0 xyz
      dof rx ry rz
   end
   begin
      id 28
      name RightLeg
      direction 0.000000 -1.000000 0.000000
      length 16.270368
      axis 0.0 0.0 0.0 xyz
      dof rx ry rz
   end
   begin
      id 29
      name RightFoot
      direction 0.000000 -0.258819 0.965926
      length 4.922846
      axis 15.0 0.0 0.0 xyz
      dof rx ry rz
   end
   begin
      id 30
      name RightToeBase
      direction 0.000000 0.000000 1.000000
      length 2.952750
      axis 0.0 0.0 0.0 xyz
      dof rx ry rz
   end
:hierarchy
   begin
      root Spine_dum LeftUpLeg_dum RightUpLeg_dum
      Spine_dum Spine
      LeftUpLeg_dum LeftUpLeg
      RightUpLeg_dum RightUpLeg
      Spine Spine_dum1 Spine_dum2 Spine_dum3
      Spine_dum1 Head
      Spine_dum2 LeftShoulder
      Spine_dum3 RightShoulder
      LeftShoulder LeftArm
      LeftArm LeftForeArm
      LeftForeArm LeftHand
      LeftHand LeftHand_dum1 LeftHand_dum2
      LeftHand_dum1 LeftHandThumb1
      RightShoulder RightArm
      RightArm RightForeArm
      RightForeArm RightHand
      RightHand RightHand_dum1 RightHand_dum2
      RightHand_dum1 RightHandThumb1
      LeftUpLeg LeftLeg
      LeftLeg LeftFoot
      LeftFoot LeftToeBase
      RightUpLeg RightLeg
      RightLeg RightFoot
      RightFoot RightToeBase
   end

# File created by Blade
# Date/Time:  Fri Jan 16 17:25:22 2015
# Frame Rate: 120.000 fps
#------------------------------------------------------
:FULLY-SPECIFIED
:DEGREES
1193
root -5.808249 35.222836 -10.315206 -2.042352 -9.278407 -6.225309
Spine 1.561190 2.318848 9.757759
Head 2.561387 3.430346 -7.185174
LeftShoulder -18.105205 15.194278 -15.998714
LeftArm 25.534525 20.828911 -66.202788
LeftForeArm 12.580347 0.000000 15.366593
LeftHand 0.838938 0.000000 -6.211117
LeftHandThumb1 -26.253704 0.000000 33.147579
RightShoulder -0.174105 -3.421184 1.736256
RightArm 8.928855 -35.032726 68.637591
RightForeArm -28.164701 -0.000000 23.235846
RightHand 3.496806 -0.000000 8.939442
RightHandThumb1 -24.326973 -0.000000 -32.862282
LeftUpLeg 12.678486 17.019667 8.335678
LeftLeg -9.286333 -0.000000 0.000000
LeftFoot -15.250869 29.394232 -7.883668
LeftToeBase 22.942066 -0.000000 -0.000000
RightUpLeg 8.183620 -4.220718 3.022223
RightLeg -4.796229 -0.000000 0.000000
RightFoot -3.647243 -22.834774 5.391378
RightToeBase 13.563063 -0.000000 -0.000000
1194
root -5.809756 35.223475 -10.311912 -2.037404 -9.264847 -6.224489
Spine 1.534732 2.340250 9.760913
Head 2.541171 3.526516 -7.193549
LeftShoulder -18.078552 15.180647 -15.962705
LeftArm 25.481371 20.872326 -66.237877
LeftForeArm 12.578527 -0.000000 15.371021
LeftHand 0.852468 -0.000000 -6.269325
LeftHandThumb1 -26.253704 0.000000 33.147579
RightShoulder -0.138261 -3.416416 1.710110
RightArm 8.892194 -35.009316 68.696452
RightForeArm -28.187982 0.000000 23.221002
RightHand 3.507343 -0.000000 8.980237
RightHandThumb1 -24.326973 -0.000000 -32.862282
LeftUpLeg 12.674942 17.032234 8.339527
LeftLeg -9.285363 -0.000000 0.000000
LeftFoot -15.262794 29.381147 -7.870420
LeftToeBase 23.033624 -0.000000 -0.000000
RightUpLeg 8.193279 -4.212657 3.024256
RightLeg -4.812143 -0.000000 0.000000
RightFoot -3.650189 -22.853240 5.410686
RightToeBase 13.585169 -0.000000 -0.000000
1195
root -5.811090 35.224128 -10.309268 -2.027662 -9.264391 -6.221985
Spine 1.506941 2.359223 9.765003
Head 2.515839 3.625790 -7.214525
LeftShoulder -18.079799 15.168341 -15.938871
LeftArm 25.462354 20.963196 -66.233912
LeftForeArm 12.531778 0.000000 15.361622
LeftHand 0.856703 0.000000 -6.288444
LeftHandThumb1 -26.253704 0.000000 33.147579
RightShoulder -0.080178 -3.376213 1.677726
RightArm 8.807571 -34.976976 68.794453
RightForeArm -28.247170 0.000000 23.199831
RightHand 3.544533 -0.000000 8.974584
RightHandThumb1 -24.326973 -0.000000 -32.862282
LeftUpLeg 12.666816 17.036544 8.336045
LeftLeg -9.277867 -0.000000 0.000000
LeftFoot -15.260029 29.360133 -7.920705
LeftToeBase 22.909979 -0.000000 -0.000000
RightUpLeg 8.189497 -4.227777 3.020380
RightLeg -4.814916 -0.000000 0.000000
RightFoot -3.648707 -22.834421 5.397830
RightToeBase 13.588623 -0.000000 -0.000000
1196
root -5.812946 35.224757 -10.306613 -2.025410 -9.253499 -6.219690
Spine 1.488547 2.377902 9.770573
Head 2.491811 3.722756 -7.240206
LeftShoulder -18.062834 15.153940 -15.915461
LeftArm 25.422777 21.005033 -66.259053
LeftForeArm 12.566378 -0.000000 15.365574
LeftHand 0.841399 -0.000000 -6.287338
LeftHandThumb1 -26.253704 0.000000 33.147579
RightShoulder -0.048427 -3.392972 1.650326
RightArm 8.812878 -34.977684 68.818861
RightForeArm -28.303640 -0.000000 23.188047
RightHand 3.572061 0.000000 9.010261
RightHandThumb1 -24.326973 -0.000000 -32.862282
LeftUpLeg 12.659366 17.034450 8.335956
LeftLeg -9.263110 -0.000000 0.000000
LeftFoot -15.258246 29.347403 -7.922698
LeftToeBase 22.890429 -0.000000 -0.000000
RightUpLeg 8.197826 -4.239045 3.018890
RightLeg -4.829335 -0.000000 0.000000
RightFoot -3.637134 -22.838642 5.416601
RightToeBase 13.520026 -0.000000 -0.000000
1197
root -5.813813 35.225020 -10.304114 -2.018238 -9.249888 -6.218064
Spine 1.464194 2.397207 9.776274
Head 2.466111 3.829046 -7.260633
LeftShoulder -18.053440 15.163718 -15.894400
LeftArm 25.386930 21.019722 -66.303280
LeftForeArm 12.605669 -0.000000 15.383209
LeftHand 0.841268 -0.000000 -6.305175
LeftHandThumb1 -26.253704 0.000000 33.147579
RightShoulder -0.010667 -3.371336 1.618856
RightArm 8.769992 -34.952361 68.889895
RightForeArm -28.385203 -0.000000 23.162470
RightHand 3.605115 -0.000000 9.088818
RightHandThumb1 -24.326973 -0.000000 -32.862282
LeftUpLeg 12.653347 17.081931 8.337990
LeftLeg -9.271619 -0.000000 0.000000
LeftFoot -15.291041 29.335785 -7.955645
LeftToeBase 22.988129 -0.000000 -0.000000
RightUpLeg 8.199930 -4.240711 3.020874
RightLeg -4.842420 -0.000000 0.000000
RightFoot -3.631792 -22.852136 5.423274
RightToeBase 13.498519 -0.000000 -0.000000
1198
root -5.814341 35.225271 -10.301049 -2.016862 -9.241886 -6.214757
Spine 1.448919 2.415745 9.781706
Head 2.437596 3.937509 -7.287451
LeftShoulder -18.057307 15.134866 -15.880994
LeftArm 25.350902 21.070651 -66.314733
LeftForeArm 12.611990 0.000000 15.382434
LeftHand 0.848901 0.000000 -6.277451
LeftHandThumb1 -26.253704 0.000000 33.147579
RightShoulder 0.020280 -3.359479 1.584030
RightArm 8.750563 -34.981702 68.929636
RightForeArm -28.444320 0.000000 23.142073
RightHand 3.642332 0.000000 9.077227
RightHandThumb1 -24.326973 -0.000000 -32.862282
LeftUpLeg 12.656440 17.096249 8.335783
LeftLeg -9.270397 -0.000000 0.000000
LeftFoot -15.282870 29.299094 -7.991768
LeftToeBase 22.922492 -0.000000 -0.000000
RightUpLeg 8.210765 -4.247567 3.018649
RightLeg -4.854929 -0.000000 0.000000
RightFoot -3.615346 -22.850393 5.406453
RightToeBase 13.511178 -0.000000 -0.000000
1199
root -5.804990 35.224386 -10.289190 -2.041057 -9.180422 -6.186328
Spine 1.421339 2.371068 9.800297
Head 2.443281 4.042158 -7.359164
LeftShoulder -18.055308 15.135884 -15.888508
LeftArm 25.290647 21.092680 -66.371153
LeftForeArm 12.607112 -0.000000 15.391977
LeftHand 0.832850 -0.000000 -6.218930
LeftHandThumb1 -26.253704 0.000000 33.147579
RightShoulder 0.067196 -3.372928 1.493841
RightArm 8.718820 -34.993211 68.993404
RightForeArm -28.447843 -0.000000 23.128243
RightHand 3.673043 0.000000 9.165307
RightHandThumb1 -24.326973 -0.000000 -32.862282
LeftUpLeg 12.681035 16.960349 8.281530
LeftLeg -9.271378 -0.000000 0.000000
LeftFoot -15.286040 29.372861 -7.956883
LeftToeBase 22.943551 -0.000000 -0.000000
RightUpLeg 8.280577 -4.313239 2.964047
RightLeg -4.915167 -0.000000 0.000000
RightFoot -3.620412 -22.835240 5.435493
RightToeBase 13.532310 -0.000000 -0.000000
1200
root -5.792494 35.223481 -10.276177 -2.075644 -9.153606 -6.162477
Spine 1.417471 2.335573 9.846037
Head 2.434529 4.165236 -7.455327
LeftShoulder -18.086652 15.129963 -15.914241
LeftArm 25.258288 21.182191 -66.403554
LeftForeArm 12.374946 -0.000000 15.372567
LeftHand 0.892841 -0.000000 -6.618851
LeftHandThumb1 -26.253704 0.000000 33.147579
RightShoulder 0.121435 -3.368781 1.386111
RightArm 8.674448 -34.969524 69.064267
RightForeArm -28.618735 -0.000000 23.127625
RightHand 3.735421 -0.000000 9.276287
RightHandThumb1 -24.326973 -0.000000 -32.862282
LeftUpLeg 12.750058 16.968290 8.248592
LeftLeg -9.330723 -0.000000 0.000000
LeftFoot -15.251770 29.353716 -7.940338
LeftToeBase 22.941989 -0.000000 -0.000000
RightUpLeg 8.357653 -4.352323 2.900544
RightLeg -4.963502 -0.000000 0.000000
RightFoot -3.618915 -22.767534 5.481748
RightToeBase 13.498379 -0.000000 -0.000000
